<?xml version="1.0" encoding="UTF-8" standalone="no"?>
<!-- Created with Inkscape (http://www.inkscape.org/) -->

<svg
   xmlns:dc="http://purl.org/dc/elements/1.1/"
   xmlns:cc="http://creativecommons.org/ns#"
   xmlns:rdf="http://www.w3.org/1999/02/22-rdf-syntax-ns#"
   xmlns:svg="http://www.w3.org/2000/svg"
   xmlns="http://www.w3.org/2000/svg"
   xmlns:sodipodi="http://sodipodi.sourceforge.net/DTD/sodipodi-0.dtd"
   xmlns:inkscape="http://www.inkscape.org/namespaces/inkscape"
   width="334.95798"
   height="62.271996"
   viewBox="0 0 88.624299 16.476132"
   id="svg4962"
   version="1.1"
   inkscape:version="0.91+devel+osxmenu r12922"
   sodipodi:docname="name.svg">
  <defs
     id="defs4964" />
  <sodipodi:namedview
     id="base"
     pagecolor="#ffffff"
     bordercolor="#666666"
     borderopacity="1.0"
     inkscape:pageopacity="0.0"
     inkscape:pageshadow="2"
     inkscape:zoom="0.98994949"
     inkscape:cx="114.51825"
     inkscape:cy="33.424754"
     inkscape:document-units="mm"
     inkscape:current-layer="text4911"
     showgrid="false"
     fit-margin-top="2"
     fit-margin-left="2"
     fit-margin-right="2"
     fit-margin-bottom="2"
     units="px"
     inkscape:window-width="1680"
     inkscape:window-height="1005"
     inkscape:window-x="0"
     inkscape:window-y="23"
     inkscape:window-maximized="0" />
  <metadata
     id="metadata4967">
    <rdf:RDF>
      <cc:Work
         rdf:about="">
        <dc:format>image/svg+xml</dc:format>
        <dc:type
           rdf:resource="http://purl.org/dc/dcmitype/StillImage" />
        <dc:title></dc:title>
      </cc:Work>
    </rdf:RDF>
  </metadata>
  <g
     inkscape:label="Layer 1"
     inkscape:groupmode="layer"
     id="layer1"
     transform="translate(-81.986474,-188.54862)">
    <g
       style="font-style:normal;font-variant:normal;font-weight:bold;font-stretch:normal;font-size:4.85436869px;line-height:125%;font-family:lato;-inkscape-font-specification:'lato Bold';letter-spacing:0px;word-spacing:0px;display:inline;fill:#000000;fill-opacity:1;stroke:none;stroke-width:0.21228121px;stroke-linecap:butt;stroke-linejoin:miter;stroke-opacity:1"
       aria-label="redpencil.io"
       id="text4911">
      <path
         d="m 82.515641,201.65926 0,-8.6868 1.227666,0 q 0.321734,0 0.448734,0.11853 0.127,0.11853 0.169333,0.4064 l 0.127,1.04987 q 0.465667,-0.80434 1.0922,-1.27 0.626533,-0.46567 1.405466,-0.46567 0.643467,0 1.0668,0.29633 l -0.270933,1.56634 q -0.0254,0.1524 -0.110067,0.22013 -0.08467,0.0593 -0.2286,0.0593 -0.127,0 -0.347133,-0.0593 -0.220133,-0.0593 -0.5842,-0.0593 -0.651933,0 -1.1176,0.36407 -0.465666,0.3556 -0.7874,1.04987 l 0,5.4102 -2.091266,0 z"
         style="font-size:16.93333244px;stroke-width:0.21228121px"
         id="path4457" />
      <path
         d="m 93.017746,192.83699 q 0.821267,0 1.507067,0.26247 0.694266,0.26246 1.1938,0.77046 0.499533,0.49954 0.778933,1.23614 0.2794,0.72813 0.2794,1.66793 0,0.23707 -0.0254,0.39793 -0.01693,0.1524 -0.0762,0.24554 -0.0508,0.0847 -0.143933,0.127 -0.09313,0.0339 -0.237067,0.0339 l -5.367866,0 q 0.09313,1.33774 0.719666,1.96427 0.626534,0.62653 1.659467,0.62653 0.508,0 0.872067,-0.11853 0.372533,-0.11853 0.643466,-0.26247 0.2794,-0.14393 0.4826,-0.26246 0.211667,-0.11854 0.4064,-0.11854 0.127,0 0.220133,0.0508 0.09313,0.0508 0.160867,0.14394 l 0.6096,0.762 q -0.347133,0.4064 -0.778933,0.6858 -0.4318,0.27093 -0.905934,0.44026 -0.465666,0.16087 -0.956733,0.2286 -0.4826,0.0677 -0.9398,0.0677 -0.905933,0 -1.684866,-0.29634 -0.778934,-0.3048 -1.354667,-0.889 -0.575733,-0.59266 -0.905933,-1.45626 -0.3302,-0.87207 -0.3302,-2.01507 0,-0.889 0.287866,-1.66793 0.287867,-0.7874 0.821267,-1.36314 0.541867,-0.5842 1.312333,-0.92286 0.778934,-0.33867 1.7526,-0.33867 z m 0.04233,1.4986 q -0.9144,0 -1.430867,0.51647 -0.516467,0.51646 -0.6604,1.46473 l 3.928533,0 q 0,-0.4064 -0.110066,-0.762 -0.110067,-0.36407 -0.338667,-0.635 -0.2286,-0.27093 -0.575733,-0.42333 -0.347134,-0.16087 -0.8128,-0.16087 z"
         style="font-size:16.93333244px;stroke-width:0.21228121px"
         id="path4459" />
      <path
         d="m 104.60279,201.65926 q -0.4064,0 -0.5334,-0.381 l -0.16933,-0.8382 q -0.27094,0.3048 -0.56727,0.55033 -0.29633,0.24553 -0.64347,0.42333 -0.33866,0.1778 -0.7366,0.27094 -0.38946,0.1016 -0.84666,0.1016 -0.7112,0 -1.303869,-0.29634 -0.592666,-0.29633 -1.024466,-0.85513 -0.423334,-0.56727 -0.6604,-1.397 -0.2286,-0.82973 -0.2286,-1.89653 0,-0.9652 0.262466,-1.79494 0.262467,-0.82973 0.753534,-1.43933 0.491066,-0.6096 1.176865,-0.94827 0.6858,-0.34713 1.54093,-0.34713 0.72814,0 1.2446,0.23707 0.51647,0.2286 0.92287,0.61806 l 0,-4.58893 2.09127,0 0,12.58147 -1.27847,0 z m -2.78553,-1.53247 q 0.65193,0 1.10913,-0.27093 0.4572,-0.27094 0.8636,-0.77047 l 0,-3.89467 q -0.3556,-0.4318 -0.77893,-0.6096 -0.41487,-0.1778 -0.89747,-0.1778 -0.47413,0 -0.8636,0.1778 -0.381,0.1778 -0.65193,0.54187 -0.26247,0.3556 -0.4064,0.9144 -0.14394,0.55033 -0.14394,1.30387 0,0.762 0.11854,1.2954 0.127,0.52493 0.3556,0.8636 0.2286,0.3302 0.5588,0.4826 0.3302,0.14393 0.7366,0.14393 z"
         style="font-size:16.93333244px;stroke-width:0.21228121px"
         id="path4461" />
      <path
         d="m 108.14715,204.49559 0,-11.52313 1.27847,0 q 0.2032,0 0.34713,0.0931 0.14393,0.0931 0.18627,0.28787 l 0.16933,0.80433 q 0.52493,-0.60113 1.20227,-0.97367 0.6858,-0.37253 1.6002,-0.37253 0.71119,0 1.29539,0.29633 0.59267,0.29634 1.016,0.8636 0.4318,0.5588 0.6604,1.38854 0.23707,0.82126 0.23707,1.88806 0,0.97367 -0.26247,1.8034 -0.26246,0.82974 -0.75353,1.43934 -0.4826,0.6096 -1.17687,0.95673 -0.6858,0.33867 -1.54093,0.33867 -0.7366,0 -1.25306,-0.22014 -0.508,-0.2286 -0.9144,-0.62653 l 0,3.556 -2.09127,0 z m 4.064,-10.033 q -0.65193,0 -1.1176,0.2794 -0.4572,0.27093 -0.85513,0.77047 l 0,3.89466 q 0.3556,0.44027 0.77046,0.61807 0.42334,0.16933 0.90594,0.16933 0.47413,0 0.85513,-0.1778 0.38946,-0.1778 0.65193,-0.54186 0.27093,-0.36407 0.41487,-0.9144 0.14393,-0.5588 0.14393,-1.31234 0,-0.762 -0.127,-1.28693 -0.11853,-0.5334 -0.34713,-0.8636 -0.2286,-0.3302 -0.5588,-0.4826 -0.32173,-0.1524 -0.7366,-0.1524 z"
         style="font-size:16.93333244px;stroke-width:0.21228121px"
         id="path4463" />
      <path
         d="m 121.32816,192.83699 q 0.82127,0 1.50707,0.26247 0.69427,0.26246 1.1938,0.77046 0.49953,0.49954 0.77893,1.23614 0.2794,0.72813 0.2794,1.66793 0,0.23707 -0.0254,0.39793 -0.0169,0.1524 -0.0762,0.24554 -0.0508,0.0847 -0.14393,0.127 -0.0931,0.0339 -0.23707,0.0339 l -5.36786,0 q 0.0931,1.33774 0.71966,1.96427 0.62654,0.62653 1.65947,0.62653 0.508,0 0.87207,-0.11853 0.37253,-0.11853 0.64346,-0.26247 0.2794,-0.14393 0.4826,-0.26246 0.21167,-0.11854 0.4064,-0.11854 0.127,0 0.22014,0.0508 0.0931,0.0508 0.16086,0.14394 l 0.6096,0.762 q -0.34713,0.4064 -0.77893,0.6858 -0.4318,0.27093 -0.90593,0.44026 -0.46567,0.16087 -0.95674,0.2286 -0.4826,0.0677 -0.9398,0.0677 -0.90593,0 -1.68486,-0.29634 -0.77894,-0.3048 -1.35467,-0.889 -0.57573,-0.59266 -0.90593,-1.45626 -0.3302,-0.87207 -0.3302,-2.01507 0,-0.889 0.28786,-1.66793 0.28787,-0.7874 0.82127,-1.36314 0.54187,-0.5842 1.31233,-0.92286 0.77894,-0.33867 1.7526,-0.33867 z m 0.0423,1.4986 q -0.9144,0 -1.43087,0.51647 -0.51647,0.51646 -0.6604,1.46473 l 3.92853,0 q 0,-0.4064 -0.11006,-0.762 -0.11007,-0.36407 -0.33867,-0.635 -0.2286,-0.27093 -0.57573,-0.42333 -0.34714,-0.16087 -0.8128,-0.16087 z"
         style="font-size:16.93333244px;stroke-width:0.21228121px"
         id="path4465" />
      <path
         d="m 126.80027,201.65926 0,-8.6868 1.27847,0 q 0.4064,0 0.5334,0.381 l 0.14393,0.6858 q 0.26247,-0.27094 0.55034,-0.49107 0.29633,-0.22013 0.61806,-0.381 0.3302,-0.16087 0.70274,-0.24553 0.37253,-0.0847 0.8128,-0.0847 0.7112,0 1.26153,0.24553 0.55033,0.23707 0.9144,0.67734 0.37253,0.4318 0.5588,1.0414 0.19473,0.60113 0.19473,1.32926 l 0,5.52874 -2.09126,0 0,-5.52874 q 0,-0.79586 -0.37254,-1.22766 -0.36406,-0.44027 -1.10066,-0.44027 -0.54187,0 -1.016,0.24553 -0.47414,0.24554 -0.89747,0.66887 l 0,6.28227 -2.09127,0 z"
         style="font-size:16.93333244px;stroke-width:0.21228121px"
         id="path4467" />
      <path
         d="m 142.52896,194.80972 q -0.0931,0.11854 -0.18627,0.18627 -0.0847,0.0677 -0.254,0.0677 -0.16086,0 -0.31326,-0.0931 -0.1524,-0.1016 -0.36407,-0.22013 -0.21167,-0.127 -0.508,-0.22014 -0.28787,-0.1016 -0.71967,-0.1016 -0.55033,0 -0.9652,0.2032 -0.41486,0.19474 -0.69426,0.56727 -0.27094,0.37253 -0.4064,0.90593 -0.13547,0.52494 -0.13547,1.1938 0,0.69427 0.14393,1.23614 0.1524,0.54186 0.4318,0.9144 0.2794,0.36406 0.67734,0.5588 0.39793,0.18626 0.89746,0.18626 0.49954,0 0.80434,-0.11853 0.31326,-0.127 0.52493,-0.27093 0.21167,-0.1524 0.36407,-0.27094 0.16086,-0.127 0.3556,-0.127 0.254,0 0.381,0.19474 l 0.60113,0.762 q -0.34713,0.4064 -0.75353,0.6858 -0.4064,0.27093 -0.84667,0.44026 -0.4318,0.16087 -0.89747,0.2286 -0.46566,0.0677 -0.92286,0.0677 -0.80434,0 -1.51554,-0.29634 -0.7112,-0.3048 -1.2446,-0.88053 -0.52493,-0.57573 -0.8382,-1.40547 -0.3048,-0.8382 -0.3048,-1.905 0,-0.95673 0.27094,-1.76953 0.2794,-0.82127 0.8128,-1.41393 0.5334,-0.60114 1.3208,-0.9398 0.7874,-0.33867 1.81186,-0.33867 0.97367,0 1.7018,0.31327 0.7366,0.31326 1.3208,0.89746 l -0.55033,0.762 z"
         style="font-size:16.93333244px;stroke-width:0.21228121px"
         id="path4469" />
      <path
         d="m 146.72102,192.97246 0,8.6868 -2.09127,0 0,-8.6868 2.09127,0 z m 0.31326,-2.53154 q 0,0.27094 -0.11006,0.508 -0.11007,0.23707 -0.29634,0.41487 -0.1778,0.1778 -0.42333,0.28787 -0.24553,0.1016 -0.52493,0.1016 -0.27094,0 -0.51647,-0.1016 -0.23707,-0.11007 -0.41487,-0.28787 -0.1778,-0.1778 -0.28786,-0.41487 -0.1016,-0.23706 -0.1016,-0.508 0,-0.2794 0.1016,-0.52493 0.11006,-0.24553 0.28786,-0.42333 0.1778,-0.1778 0.41487,-0.2794 0.24553,-0.11007 0.51647,-0.11007 0.2794,0 0.52493,0.11007 0.24553,0.1016 0.42333,0.2794 0.18627,0.1778 0.29634,0.42333 0.11006,0.24553 0.11006,0.52493 z"
         style="font-size:16.93333244px;stroke-width:0.21228121px"
         id="path4471" />
      <path
         d="m 151.31815,189.07779 0,12.58147 -2.09127,0 0,-12.58147 2.09127,0 z"
         style="font-size:16.93333244px;stroke-width:0.21228121px"
         id="path4473" />
      <path
         d="m 153.18902,200.50779 q 0,-0.26247 0.0931,-0.49953 0.1016,-0.23707 0.27094,-0.4064 0.1778,-0.16934 0.41486,-0.27094 0.23707,-0.1016 0.508,-0.1016 0.26247,0 0.49954,0.1016 0.23706,0.1016 0.4064,0.27094 0.16933,0.16933 0.27093,0.4064 0.1016,0.23706 0.1016,0.49953 0,0.27093 -0.1016,0.508 -0.1016,0.2286 -0.27093,0.39793 -0.16934,0.16934 -0.4064,0.26247 -0.23707,0.1016 -0.49954,0.1016 -0.27093,0 -0.508,-0.1016 -0.23706,-0.0931 -0.41486,-0.26247 -0.16934,-0.16933 -0.27094,-0.39793 -0.0931,-0.23707 -0.0931,-0.508 z"
         style="font-size:16.93333244px;fill:#ff0000;fill-opacity:1;stroke-width:0.21228121px"
         id="path4475" />
      <path
         d="m 159.71867,192.97246 0,8.6868 -2.09127,0 0,-8.6868 2.09127,0 z m 0.31327,-2.53154 q 0,0.27094 -0.11007,0.508 -0.11007,0.23707 -0.29633,0.41487 -0.1778,0.1778 -0.42334,0.28787 -0.24553,0.1016 -0.52493,0.1016 -0.27093,0 -0.51647,-0.1016 -0.23706,-0.11007 -0.41486,-0.28787 -0.1778,-0.1778 -0.28787,-0.41487 -0.1016,-0.23706 -0.1016,-0.508 0,-0.2794 0.1016,-0.52493 0.11007,-0.24553 0.28787,-0.42333 0.1778,-0.1778 0.41486,-0.2794 0.24554,-0.11007 0.51647,-0.11007 0.2794,0 0.52493,0.11007 0.24554,0.1016 0.42334,0.2794 0.18626,0.1778 0.29633,0.42333 0.11007,0.24553 0.11007,0.52493 z"
         style="font-size:16.93333244px;stroke-width:0.21228121px"
         id="path4477" />
      <path
         d="m 165.79747,192.83699 q 0.97367,0 1.76107,0.31327 0.79587,0.31326 1.35467,0.889 0.5588,0.57573 0.8636,1.40546 0.3048,0.82974 0.3048,1.8542 0,1.03294 -0.3048,1.86267 -0.3048,0.82973 -0.8636,1.41393 -0.5588,0.5842 -1.35467,0.89747 -0.7874,0.31327 -1.76107,0.31327 -0.97366,0 -1.76953,-0.31327 -0.79587,-0.31327 -1.36313,-0.89747 -0.5588,-0.5842 -0.87207,-1.41393 -0.3048,-0.82973 -0.3048,-1.86267 0,-1.02446 0.3048,-1.8542 0.31327,-0.82973 0.87207,-1.40546 0.56726,-0.57574 1.36313,-0.889 0.79587,-0.31327 1.76953,-0.31327 z m 0,7.3406 q 1.08374,0 1.6002,-0.72813 0.52494,-0.72814 0.52494,-2.1336 0,-1.40547 -0.52494,-2.14207 -0.51646,-0.7366 -1.6002,-0.7366 -1.10066,0 -1.6256,0.74507 -0.52493,0.7366 -0.52493,2.1336 0,1.397 0.52493,2.1336 0.52494,0.72813 1.6256,0.72813 z"
         style="font-size:16.93333244px;stroke-width:0.21228121px"
         id="path4479" />
    </g>
  </g>
</svg>
